<?xml version="1.0" encoding="UTF-8" standalone="no"?>
<!-- Created with Inkscape (http://www.inkscape.org/) -->

<svg
   width="210mm"
   height="297mm"
   viewBox="0 0 210 297"
   version="1.1"
   id="svg1"
   xml:space="preserve"
   inkscape:version="1.4.3 (0d15f75, 2025-12-25)"
   sodipodi:docname="smarttr.svg"
   xmlns:inkscape="http://www.inkscape.org/namespaces/inkscape"
   xmlns:sodipodi="http://sodipodi.sourceforge.net/DTD/sodipodi-0.dtd"
   xmlns="http://www.w3.org/2000/svg"
   xmlns:svg="http://www.w3.org/2000/svg"><sodipodi:namedview
     id="namedview1"
     pagecolor="#505050"
     bordercolor="#eeeeee"
     borderopacity="1"
     inkscape:showpageshadow="0"
     inkscape:pageopacity="0"
     inkscape:pagecheckerboard="0"
     inkscape:deskcolor="#505050"
     inkscape:document-units="mm"
     showgrid="false"
     inkscape:zoom="0.5336449"
     inkscape:cx="154.59719"
     inkscape:cy="677.41676"
     inkscape:window-width="1920"
     inkscape:window-height="1176"
     inkscape:window-x="-1"
     inkscape:window-y="40"
     inkscape:window-maximized="0"
     inkscape:current-layer="layer1" /><defs
     id="defs1" /><g
     inkscape:label="Layer 1"
     inkscape:groupmode="layer"
     id="layer1"><g
       inkscape:label="Layer 1"
       id="layer1-0"
       transform="matrix(0.2328532,0,0,0.2328532,-40.592917,-7.3531483)"><path
         style="display:inline;fill:#4246dd;fill-opacity:1;stroke-width:0.447344"
         d="m 602.08895,1236.0628 c -55.87307,-18.0686 -75.63782,-88.2873 -37.83573,-134.4199 7.47907,-9.1271 23.88929,-19.8198 33.73773,-21.9828 l 5.63538,-1.2378 -0.55182,-36.5609 -0.55183,-36.561 -15.5053,-5.47097 c -8.52802,-3.0091 -17.84611,-7.0049 -20.70715,-8.8795 -7.7171,-5.0564 -9.55207,-4.2711 -19.53483,8.3609 -9.12239,11.54307 -9.12239,11.54307 -9.20444,31.81487 -0.0932,23.021 -2.49153,30.459 -13.88708,43.0727 -22.96208,25.4162 -69.49316,24.2432 -88.68765,-2.2357 -32.40353,-44.7007 -2.40544,-100.96877 51.02249,-95.70407 l 13.64197,1.3442 12.40784,-12.6018 c 6.82432,-6.9311 12.40804,-12.789 12.40804,-13.0176 0,-0.2286 -1.92856,-4.7755 -4.28578,-10.1041 -21.94918,-49.6199 -13.24471,-97.379 24.28269,-133.2326 17.70208,-16.9123 27.3366,-22.7796 45.88607,-27.9437 l 12.16313,-3.386 0.54352,-47.93938 c 0.51111,-45.09131 0.32575,-47.93932 -3.12176,-47.93932 -8.15731,0 -28.31608,-6.64737 -43.73163,-14.42046 l -16.34519,-8.24174 -15.19758,15.89221 c -8.35867,8.74075 -28.46983,29.59151 -44.69145,46.33502 -16.22162,16.74353 -35.82694,37.01227 -43.56734,45.04167 l -14.07345,14.599 3.40598,10.8053 c 17.95591,56.9628 -9.57293,106.4927 -63.71071,114.6282 -63.99371,9.6166 -114.56019,-53.4423 -91.13988,-113.6557 16.94038,-43.55316 71.39276,-66.45302 110.66761,-46.54097 6.08147,3.08327 6.08147,3.08327 60.48644,-52.47174 29.92274,-30.55527 56.70791,-58.51211 59.52236,-62.12624 l 5.11738,-6.57122 -10.43289,-20.79564 c -57.75038,-115.11136 46.93098,-243.28878 170.91825,-209.28148 89.9714,24.67743 132.69014,128.4609 88.13076,214.10966 -18.97996,36.48182 -59.46361,67.04661 -95.70888,72.25903 l -10.44667,1.50237 -0.54392,47.03748 -0.54393,47.03755 11.69334,3.1478 c 58.11483,15.6448 91.9346,74.7292 78.65243,137.4089 -7.97033,37.6133 -44.13031,75.4844 -80.91849,84.74767 l -9.35293,2.3552 v 36.2986 c 0,36.2986 0,36.2986 5.5746,38.3293 69.68419,25.3844 73.08694,127.4835 5.13825,154.1684 -14.46626,5.6812 -43.72433,7.2412 -56.75795,3.0263 z m 134.12196,-99.8869 c -6.49756,-29.2985 -26.98309,-60.1646 -49.05381,-73.9107 -6.56604,-4.0895 -6.58812,-4.1592 -6.55368,-20.6622 l 0.0344,-16.5589 10.60812,-4.5999 c 77.43552,-33.57857 104.27724,-142.64817 53.67143,-218.09147 -2.06247,-3.0747 -1.96787,-4.0955 0.52083,-5.6229 1.6723,-1.0265 9.42627,-5.6402 17.23088,-10.2527 135.0792,-79.83207 181.2219,-253.90407 103.2161,-389.37982 C 754.12084,202.99172 477.2948,211.33862 376.47766,411.85404 c -43.05947,85.64096 -37.04404,209.92134 13.4096,277.05089 5.96073,7.93088 5.98686,7.11985 -0.54737,16.99346 -3.7605,5.68262 -6.37298,7.77837 -8.61534,6.91133 -35.85611,-13.86458 -94.45389,5.16594 -119.80763,38.90938 -4.88462,6.50083 -9.50892,12.58193 -10.2765,13.51343 -3.31117,4.0189 -33.71544,-58.16846 -45.08222,-92.20862 C 180.3185,597.43807 179.30803,499.68582 202.91553,417.36379 273.32841,171.82591 530.7122,38.405297 772.80502,121.94903 c 238.52988,82.31416 357.68678,360.41443 254.48878,593.95121 -32.87878,74.40499 -138.48982,232.63429 -264.52055,396.31236 -24.33942,31.6099 -24.77882,32.0063 -26.56254,23.9633 z"
         id="path7407"
         inkscape:label="path7407"
         sodipodi:nodetypes="ssscccssssssscsscsscssscssscsssssscsssscccssscssssssscssssssssssssssssss" /><g
         id="g7418"><path
           id="path7409"
           style="fill:#11a5e5;stroke-width:0.525107"
           d="M 742.76051,890.50159 A 117.82307,117.82307 0 0 1 624.93744,1008.3247 117.82307,117.82307 0 0 1 507.11437,890.50159 117.82307,117.82307 0 0 1 624.93744,772.67852 117.82307,117.82307 0 0 1 742.76051,890.50159 Z" /><circle
           style="fill:#11a5e5;fill-opacity:1;stroke-width:0.268739"
           id="path7409-5"
           cx="479.89038"
           cy="1034.0151"
           r="60.299454" /><circle
           style="fill:#11a5e5;fill-opacity:1;stroke-width:0.379769"
           id="path7409-5-8"
           cx="627.27399"
           cy="1156.41"
           r="85.212357" /><rect
           style="fill:#11a5e5;fill-opacity:1;stroke-width:0.260709"
           id="rect7409"
           width="47.107121"
           height="75.597054"
           x="601.95563"
           y="1002.2251" /><path
           style="fill:#11a5e5;fill-opacity:1;stroke-width:0.264583"
           d="m 498.56569,977.73675 28.1023,-28.64797 34.10471,38.47013 -23.73688,32.19489 z"
           id="path7410"
           transform="translate(-1.0992435e-6)" /></g></g></g></svg>
