<?xml version="1.0" encoding="UTF-8" standalone="no"?>
<!-- Created with Inkscape (http://www.inkscape.org/) -->

<svg
   width="100"
   height="100"
   viewBox="0 0 26.458333 26.458333"
   version="1.1"
   id="svg1"
   xml:space="preserve"
   sodipodi:docname="cecomplgns-menu-icon.svg"
   xmlns:inkscape="http://www.inkscape.org/namespaces/inkscape"
   xmlns:sodipodi="http://sodipodi.sourceforge.net/DTD/sodipodi-0.dtd"
   xmlns="http://www.w3.org/2000/svg"
   xmlns:svg="http://www.w3.org/2000/svg"><sodipodi:namedview
     id="namedview1"
     pagecolor="#505050"
     bordercolor="#eeeeee"
     borderopacity="1"
     inkscape:showpageshadow="0"
     inkscape:pageopacity="0"
     inkscape:pagecheckerboard="0"
     inkscape:deskcolor="#505050"
     inkscape:document-units="mm"><inkscape:page
       x="0"
       y="0"
       width="26.458332"
       height="26.458332"
       id="page2"
       margin="0"
       bleed="0" /></sodipodi:namedview><defs
     id="defs1"><inkscape:path-effect
       effect="fillet_chamfer"
       id="path-effect18"
       is_visible="true"
       lpeversion="1"
       nodesatellites_param="F,0,0,1,0,0,0,1 @ F,0,0,1,0,0,0,1 @ F,0,0,1,0,0,0,1 @ F,0,0,1,0,0,0,1 @ F,0,0,1,0,0,0,1 @ F,0,0,1,0,0,0,1 @ F,0,0,1,0,0,0,1 @ F,0,0,1,0,0,0,1 @ F,0,0,1,0,0,0,1 @ F,0,0,1,0,0,0,1 @ F,0,0,1,0,0,0,1 @ F,0,0,1,0,0,0,1 @ F,0,0,1,0,0,0,1 @ F,0,0,1,0,0,0,1 @ F,0,0,1,0,0,0,1 @ F,0,0,1,0,0,0,1 @ F,0,0,1,0,0,0,1 @ F,0,0,1,0,0,0,1 @ F,0,0,1,0,0,0,1 @ F,0,0,1,0,0,0,1 @ F,0,0,1,0,0,0,1 @ F,0,0,1,0,0,0,1 @ F,0,0,1,0,0,0,1 @ F,0,0,1,0,0,0,1 @ F,0,0,1,0,0,0,1 @ F,0,0,1,0,0,0,1 @ F,0,0,1,0,0,0,1 @ F,0,0,1,0,0,0,1 @ F,0,0,1,0,0,0,1 @ F,0,0,1,0,0,0,1 @ F,0,0,1,0,0,0,1 @ F,0,0,1,0,0,0,1 @ F,0,0,1,0,0,0,1 @ F,0,0,1,0,0,0,1 @ F,0,0,1,0,0,0,1 @ F,0,0,1,0,0,0,1 @ F,0,0,1,0,0,0,1 | F,0,0,1,0,0,0,1 @ F,0,0,1,0,0,0,1 @ F,0,0,1,0,0,0,1 @ F,0,0,1,0,0,0,1 @ F,0,0,1,0,11.465458,0,1 @ F,0,0,1,0,6.272629,0,1 @ F,0,0,1,0,3.6173657,0,1 @ F,0,0,1,0,0,0,1 @ F,0,0,1,0,0,0,1 @ F,0,0,1,0,0,0,1 @ F,0,0,1,0,0,0,1 @ F,0,0,1,0,0,0,1 @ F,0,0,1,0,0,0,1 @ F,0,0,1,0,0,0,1 @ F,0,0,1,0,0,0,1 @ F,0,0,1,0,0,0,1 @ F,0,0,1,0,0,0,1 @ F,0,0,1,0,0,0,1 @ F,0,0,1,0,0,0,1 @ F,0,0,1,0,0,0,1 @ F,0,0,1,0,0,0,1 @ F,0,0,1,0,0,0,1 @ F,0,0,1,0,0,0,1 @ F,0,0,1,0,0,0,1 @ F,0,0,1,0,0,0,1 @ F,0,0,1,0,1.820713,0,1 @ F,0,0,1,0,8.1533349,0,1 @ F,0,0,1,0,8.1297566,0,1 @ F,0,0,1,0,0,0,1 @ F,0,0,1,0,0,0,1 @ F,0,0,1,0,0,0,1 @ F,0,0,1,0,0,0,1 @ F,0,0,1,0,0,0,1 @ F,0,0,1,0,0,0,1 @ F,0,0,1,0,0,0,1 @ F,0,0,1,0,0,0,1 @ F,0,0,1,0,0,0,1 @ F,0,0,1,0,0,0,1 @ F,0,0,1,0,0,0,1 @ F,0,0,1,0,0,0,1 @ F,0,0,1,0,0,0,1 @ F,0,0,1,0,0,0,1 @ F,0,0,1,0,0,0,1 @ F,0,0,1,0,0,0,1 @ F,0,0,1,0,0,0,1 @ F,0,0,1,0,0,0,1 @ F,0,0,1,0,0,0,1 @ F,0,0,1,0,0,0,1 @ F,0,0,1,0,0,0,1 @ F,0,0,1,0,0,0,1 @ F,0,0,1,0,0,0,1 | F,0,0,1,0,0,0,1 @ F,0,0,1,0,0,0,1 @ F,0,0,1,0,0,0,1 @ F,0,0,1,0,0,0,1 @ F,0,0,1,0,0,0,1 @ F,0,0,1,0,0,0,1 @ F,0,0,1,0,0,0,1 @ F,0,0,1,0,0,0,1 @ F,0,0,1,0,0,0,1 @ F,0,0,1,0,0,0,1 @ F,0,0,1,0,0,0,1 @ F,0,0,1,0,0,0,1 @ F,0,0,1,0,0,0,1 @ F,0,0,1,0,0,0,1 @ F,0,0,1,0,0,0,1 @ F,0,0,1,0,0,0,1 @ F,0,0,1,0,0,0,1 @ F,0,0,1,0,0,0,1 @ F,0,0,1,0,0,0,1 @ F,0,0,1,0,14.770516,0,1 @ F,0,0,1,0,5.0673736,0,1 @ F,0,0,1,0,5.1259922,0,1 @ F,0,0,1,0,0,0,1 @ F,0,0,1,0,0,0,1 @ F,0,0,1,0,0,0,1 @ F,0,0,1,0,0,0,1 @ F,0,0,1,0,0,0,1 @ F,0,0,1,0,0,0,1 @ F,0,0,1,0,0,0,1 @ F,0,0,1,0,0,0,1 @ F,0,0,1,0,0,0,1 @ F,0,0,1,0,0,0,1 @ F,0,0,1,0,0,0,1 @ F,0,0,1,0,0,0,1 @ F,0,0,1,0,0,0,1 @ F,0,0,1,0,0,0,1 @ F,0,0,1,0,0,0,1 @ F,0,0,1,0,0,0,1 @ F,0,0,1,0,0,0,1 @ F,0,0,1,0,0,0,1 @ F,0,0,1,0,0,0,1 @ F,0,0,1,0,0,0,1 @ F,0,0,1,0,0,0,1 @ F,0,0,1,0,0,0,1 @ F,0,0,1,0,0,0,1 @ F,0,0,1,0,0,0,1 @ F,0,0,1,0,3.62483,0,1 @ F,0,0,1,0,7.2064304,0,1 @ F,0,0,1,0,8.5117768,0,1 @ F,0,0,1,0,0,0,1 @ F,0,0,1,0,0,0,1 @ F,0,0,1,0,0,0,1 @ F,0,0,1,0,0,0,1 @ F,0,0,1,0,0,0,1 @ F,0,0,1,0,0,0,1 @ F,0,0,1,0,0,0,1 @ F,0,0,1,0,0,0,1 @ F,0,0,1,0,0,0,1"
       radius="0"
       unit="px"
       method="auto"
       mode="F"
       chamfer_steps="1"
       flexible="false"
       use_knot_distance="true"
       apply_no_radius="true"
       apply_with_radius="true"
       only_selected="false"
       hide_knots="false" /></defs><path
     id="path4"
     style="fill:#a8aaad;fill-opacity:1;stroke-width:1.26732"
     d="m 73.435828,24.563359 c -10.557372,0.01039 -21.116219,-0.03238 -31.672486,0.01137 l -1.167887,0.07752 c -3.339702,0.44979 -6.432664,2.433598 -8.173661,5.327323 -1.366799,2.161999 -1.775934,4.765813 -1.665532,7.287411 0.03307,80.191927 0.02251,160.384117 0.09147,240.576017 0.05977,33.40975 0.07091,66.82074 0.529167,100.22799 0.259688,16.37144 0.554163,32.77075 1.617472,49.09468 0.691381,10.58062 1.891136,21.11628 3.998723,31.52572 3.139376,15.68937 7.087016,31.2367 12.148096,46.42766 11.945246,36.13055 29.604875,70.38088 52.01336,101.18349 4.97802,6.7865 10.08831,13.53386 15.62023,19.90007 9.37942,10.65219 19.42353,20.73774 29.62404,30.61829 8.05669,7.69854 16.18001,15.31579 24.87858,22.29063 27.6833,21.39063 58.35073,38.8723 90.89626,51.71416 32.35111,12.79145 66.45299,20.94675 101.01451,24.58144 2.75847,0.34377 5.55116,0.23287 8.35918,0.31419 28.99223,0.30671 57.98624,0.38504 86.9797,0.5054 82.95174,0.28662 165.90408,0.32771 248.85613,0.46819 14.48363,0.0124 28.96814,0.0595 43.45109,0.0501 3.63297,-0.0495 7.19982,-1.77214 9.46661,-4.61677 1.92852,-2.34419 2.85728,-5.40814 2.76779,-8.42739 -0.27142,-92.59031 -0.51245,-185.18092 -0.8046,-277.77116 -0.14068,-28.61091 -0.19274,-57.22439 -0.78962,-85.83042 -0.33035,-13.62436 -0.6948,-27.23384 -2.02933,-40.79648 -0.80433,-8.0846 -2.18474,-16.14547 -4.09484,-24.05021 -2.6204,-11.00914 -5.45314,-21.9968 -8.73745,-32.80936 -7.37001,-23.54876 -17.26156,-46.23552 -29.07523,-67.87648 -9.48341,-17.29481 -20.21068,-33.95938 -32.29364,-49.5763 -7.12698,-8.87356 -14.91268,-17.15684 -22.78052,-25.37262 -9.82535,-10.1151 -19.84324,-20.085 -30.44104,-29.37598 C 625.05028,104.2352 617.68494,98.70166 610.21702,93.330221 579.98427,71.804686 546.56282,54.665729 511.40858,42.857849 497.08879,38.043479 482.45219,34.191445 467.63347,31.25804 457.34306,29.128222 446.90851,27.730979 436.42762,26.988017 419.8136,25.78443 403.11879,25.492486 386.45083,25.204146 354.77661,24.756409 323.09878,24.723382 291.42201,24.656893 218.76007,24.575013 146.0978,24.596469 73.435828,24.563359 Z M 316.92846,80.38269 c 18.21161,0 34.58275,1.065558 49.11328,3.196705 14.72429,1.937406 28.28597,4.552959 40.68537,7.846549 12.98061,3.681071 24.70175,7.846107 35.16375,12.495876 6.31763,2.64192 12.15869,5.18173 17.52301,7.61938 5.7647,2.61959 10.37606,10.01028 10.37606,16.34248 v 87.1723 a 6.272629,6.272629 135 0 1 -6.27263,6.27263 h -2.89733 c -1.99782,0 -4.84611,-1.05515 -6.37846,-2.33699 -4.93845,-4.13111 -10.89586,-8.87339 -17.87228,-14.22737 -8.1371,-6.39345 -17.43656,-12.69011 -27.89856,-18.88981 -10.65572,-6.19969 -22.18299,-11.4308 -34.58238,-15.6931 -12.3994,-4.26229 -25.67053,-6.3934 -39.81359,-6.3934 -15.69299,0 -30.61131,2.51836 -44.75438,7.55561 -4.27931,1.46552 -8.4613,3.23237 -12.54548,5.30096 -4.08418,2.0686 -8.07041,4.43902 -11.95948,7.11068 -5.07512,3.48645 -9.98437,7.48638 -14.72727,11.99979 -11.43069,11.04321 -20.73067,25.67045 -27.89907,43.88207 -6.97466,18.21161 -10.46189,40.29829 -10.46189,66.25952 0,27.12368 3.77831,49.79148 11.33419,68.00309 7.74963,18.21161 17.43633,32.5483 29.06076,43.01029 11.81818,10.65573 24.99262,18.30853 39.52317,22.95829 14.53053,4.45604 28.86723,6.68383 43.01029,6.68383 13.56184,0 26.93017,-2.03392 40.10453,-6.10247 13.36809,-4.06855 25.67036,-9.59022 36.90731,-16.56488 5.745,-3.40011 11.24203,-6.94227 16.49047,-10.62622 3.42422,-2.40352 6.74272,-4.86751 9.95546,-7.3918 7.44551,-5.85004 13.67435,-10.9702 18.68673,-15.36039 0.75641,-0.66251 2.18044,-1.20449 3.18599,-1.20449 h 1.65057 a 8.1533349,8.1533349 45 0 1 8.15333,8.15333 v 87.17468 c 0,4.48994 -3.32314,9.6147 -7.42801,11.43393 -8.17598,3.62352 -16.06537,7.07496 -23.66777,10.35442 -5.9794,2.57936 -12.13606,4.94565 -18.47019,7.09931 v 5.2e-4 c -4.13275,1.40517 -8.34128,2.71949 -12.62507,3.94343 -14.14306,4.06855 -27.41418,7.16803 -39.81359,9.29917 -12.39939,2.13115 -29.44832,3.19671 -51.14726,3.19671 -32.16094,0 -61.90039,-4.74668 -89.21781,-14.23996 -27.12368,-9.49329 -50.46928,-23.6361 -70.03707,-42.42894 -19.5678,-18.79283 -34.77668,-42.23562 -45.62616,-70.328 -6.44825,-16.99995 -10.94557,-35.59635 -13.49168,-55.78885 v -5.1e-4 c -1.661235,-13.17522 -2.491838,-27.03042 -2.491838,-41.56491 0,-20.75204 1.880542,-40.33348 5.640998,-58.74422 v -5.1e-4 c 2.45356,-12.01212 5.70741,-23.52618 9.76168,-34.54156 4.0544,-11.01573 8.83394,-21.41204 14.33814,-31.18931 v -5.2e-4 c 8.43583,-14.98475 18.57428,-28.51489 30.41572,-40.5908 11.37314,-11.60766 24.3785,-21.61875 39.0157,-30.03331 4.77457,-2.74478 9.72271,-5.31957 14.84458,-7.7246 5.12185,-2.40502 10.41722,-4.640257 15.88636,-6.705531 11.01574,-4.130898 22.42424,-7.446321 34.22531,-9.946163 9.04322,-1.915633 18.31716,-3.352507 27.82155,-4.310331 9.50439,-0.957823 19.23938,-1.436605 29.20494,-1.436605 z M 476.89699,251.3552 c 32.9359,0 63.35315,5.23112 91.25179,15.6931 27.7049,10.46199 50.95381,25.28312 69.74665,44.46344 19.5678,19.95527 34.48561,43.88199 44.75386,71.78063 10.26824,27.89864 15.40268,58.99421 15.40268,93.28629 0,36.81072 -5.32779,69.26188 -15.98353,97.35427 -4.28371,11.09177 -9.24715,21.45886 -14.89004,31.10094 v 5.2e-4 c -8.64888,14.77828 -18.89454,27.85394 -30.73611,39.22654 -7.7263,7.4203 -16.0415,14.1156 -24.94576,20.08612 h -5.2e-4 c -13.64683,9.15048 -28.67691,16.59848 -45.09079,22.34333 -10.7858,3.74826 -21.94902,6.75645 -33.48994,9.02478 -17.68895,3.47669 -36.26518,5.21518 -55.72787,5.21518 -8.56699,0 -16.40936,-0.16639 -23.52673,-0.49867 -2e-4,-1e-5 -3.1e-4,0 -5.2e-4,0 -10.90968,-0.50936 -20.11615,-1.40883 -27.62002,-2.69855 -12.3994,-2.13115 -25.67052,-5.23061 -39.81359,-9.29917 -10.84946,-3.09984 -21.21449,-6.78096 -31.09526,-11.04326 -5.70303,-2.46013 -11.56755,-5.01704 -17.59341,-7.67076 -7.46563,-3.28779 -13.50236,-12.60082 -13.50236,-20.75835 V 565.3417 a 5.0673736,5.0673736 135 0 1 5.06737,-5.06737 h 1.43125 c 2.83101,0 6.83978,1.52672 8.99043,3.36766 4.53743,3.88402 9.93324,8.28312 16.18757,13.19722 8.1371,6.39344 16.95263,12.39954 26.44593,18.01802 11.23695,6.97466 23.53921,12.49633 36.90731,16.56488 13.17436,4.06855 26.54269,6.10247 40.10453,6.10247 14.14306,0 28.47975,-2.22779 43.01029,-6.68383 14.53055,-4.64978 27.705,-12.30256 39.52317,-22.95829 7.03441,-6.33097 13.35969,-14.08094 18.97507,-23.24974 v -5.2e-4 c 3.66387,-5.98249 7.02583,-12.56936 10.08569,-19.76003 2.98332,-7.19058 5.37755,-15.07597 7.18302,-23.65592 l 5.2e-4,-5.2e-4 c 2.76713,-13.1503 4.15065,-27.93271 4.15065,-44.34665 0,-25.96122 -3.48774,-48.04739 -10.46241,-66.259 -7.1684,-18.21161 -16.46786,-32.83937 -27.89856,-43.88259 -12.01191,-11.4307 -25.08917,-19.56792 -39.23223,-24.41143 -14.14306,-5.03725 -29.06138,-7.55561 -44.75437,-7.55561 -4.27934,0 -8.47902,0.19527 -12.59872,0.58549 -4.11968,0.39021 -8.15962,0.97553 -12.11967,1.75596 -5.16754,1.01843 -10.19947,2.36905 -15.0952,4.05195 -7.50343,2.57931 -14.68737,5.51324 -21.55217,8.80205 -4.47921,2.14592 -8.8228,4.4431 -13.03022,6.89105 -6.33125,3.75186 -12.2368,7.53926 -17.71675,11.3621 -3.57525,2.49412 -6.96957,5.0034 -10.18232,7.52771 -5.04219,3.86957 -9.5523,7.41979 -13.52992,10.65051 -1.52363,1.23752 -2.96918,2.42822 -4.33663,3.57207 -1.53554,1.28445 -4.38971,2.34178 -6.39165,2.34178 h -1.95555 a 7.2064304,7.2064304 45 0 1 -7.20643,-7.20643 v -89.19218 c 0,-4.70093 3.42315,-10.18754 7.6908,-12.1586 0.77346,-0.35722 1.55746,-0.71672 2.352,-1.07848 l 5.1e-4,-5.1e-4 c 5.45525,-2.48381 11.4073,-5.07396 17.85576,-7.77059 4.13037,-1.83572 8.45718,-3.59615 12.98009,-5.28081 h 5.1e-4 5.2e-4 c 6.93306,-2.58235 14.32711,-4.98738 22.18263,-7.21507 4.89592,-1.30047 9.97327,-2.49522 15.23162,-3.58427 8.05894,-1.66907 16.54338,-3.08986 25.45375,-4.26228 14.53053,-2.13114 30.90167,-3.1967 49.11328,-3.1967 z"
     inkscape:path-effect="#path-effect18"
     inkscape:original-d="m 73.435828,24.563359 c -10.557372,0.01039 -21.116219,-0.03238 -31.672486,0.01137 l -1.167887,0.07752 c -3.339702,0.44979 -6.432664,2.433598 -8.173661,5.327323 -1.366799,2.161999 -1.775934,4.765813 -1.665532,7.287411 0.03307,80.191927 0.02251,160.384117 0.09147,240.576017 0.05977,33.40975 0.07091,66.82074 0.529167,100.22799 0.259688,16.37144 0.554163,32.77075 1.617472,49.09468 0.691381,10.58062 1.891136,21.11628 3.998723,31.52572 3.139376,15.68937 7.087016,31.2367 12.148096,46.42766 11.945246,36.13055 29.604875,70.38088 52.01336,101.18349 4.97802,6.7865 10.08831,13.53386 15.62023,19.90007 9.37942,10.65219 19.42353,20.73774 29.62404,30.61829 8.05669,7.69854 16.18001,15.31579 24.87858,22.29063 27.6833,21.39063 58.35073,38.8723 90.89626,51.71416 32.35111,12.79145 66.45299,20.94675 101.01451,24.58144 2.75847,0.34377 5.55116,0.23287 8.35918,0.31419 28.99223,0.30671 57.98624,0.38504 86.9797,0.5054 82.95174,0.28662 165.90408,0.32771 248.85613,0.46819 14.48363,0.0124 28.96814,0.0595 43.45109,0.0501 3.63297,-0.0495 7.19982,-1.77214 9.46661,-4.61677 1.92852,-2.34419 2.85728,-5.40814 2.76779,-8.42739 -0.27142,-92.59031 -0.51245,-185.18092 -0.8046,-277.77116 -0.14068,-28.61091 -0.19274,-57.22439 -0.78962,-85.83042 -0.33035,-13.62436 -0.6948,-27.23384 -2.02933,-40.79648 -0.80433,-8.0846 -2.18474,-16.14547 -4.09484,-24.05021 -2.6204,-11.00914 -5.45314,-21.9968 -8.73745,-32.80936 -7.37001,-23.54876 -17.26156,-46.23552 -29.07523,-67.87648 -9.48341,-17.29481 -20.21068,-33.95938 -32.29364,-49.5763 -7.12698,-8.87356 -14.91268,-17.15684 -22.78052,-25.37262 -9.82535,-10.1151 -19.84324,-20.085 -30.44104,-29.37598 C 625.05028,104.2352 617.68494,98.70166 610.21702,93.330221 579.98427,71.804686 546.56282,54.665729 511.40858,42.857849 497.08879,38.043479 482.45219,34.191445 467.63347,31.25804 457.34306,29.128222 446.90851,27.730979 436.42762,26.988017 419.8136,25.78443 403.11879,25.492486 386.45083,25.204146 354.77661,24.756409 323.09878,24.723382 291.42201,24.656893 218.76007,24.575013 146.0978,24.596469 73.435828,24.563359 Z M 316.92846,80.38269 c 18.21161,0 34.58275,1.065558 49.11328,3.196705 14.72429,1.937406 28.28597,4.552959 40.68537,7.846549 12.98061,3.681071 24.70175,7.846107 35.16375,12.495876 10.65573,4.45604 19.95571,8.62159 27.89907,12.4964 V 221.32861 H 457.0026 c -5.42474,-4.64978 -12.30252,-10.17093 -20.63337,-16.56436 -8.1371,-6.39345 -17.43656,-12.69011 -27.89856,-18.88981 -10.65572,-6.19969 -22.18299,-11.4308 -34.58238,-15.6931 -12.3994,-4.26229 -25.67053,-6.3934 -39.81359,-6.3934 -15.69299,0 -30.61131,2.51836 -44.75438,7.55561 -4.27931,1.46552 -8.4613,3.23237 -12.54548,5.30096 -4.08418,2.0686 -8.07041,4.43902 -11.95948,7.11068 -5.07512,3.48645 -9.98437,7.48638 -14.72727,11.99979 -11.43069,11.04321 -20.73067,25.67045 -27.89907,43.88207 -6.97466,18.21161 -10.46189,40.29829 -10.46189,66.25952 0,27.12368 3.77831,49.79148 11.33419,68.00309 7.74963,18.21161 17.43633,32.5483 29.06076,43.01029 11.81818,10.65573 24.99262,18.30853 39.52317,22.95829 14.53053,4.45604 28.86723,6.68383 43.01029,6.68383 13.56184,0 26.93017,-2.03392 40.10453,-6.10247 13.36809,-4.06855 25.67036,-9.59022 36.90731,-16.56488 5.745,-3.40011 11.24203,-6.94227 16.49047,-10.62622 3.42422,-2.40352 6.74272,-4.86751 9.95546,-7.3918 8.13711,-6.39344 14.82101,-11.9151 20.05201,-16.56488 h 11.62461 v 103.45777 c -10.84947,4.84352 -21.21501,9.3963 -31.09578,13.65859 -5.9794,2.57936 -12.13606,4.94565 -18.47019,7.09931 v 5.2e-4 c -4.13275,1.40517 -8.34128,2.71949 -12.62507,3.94343 -14.14306,4.06855 -27.41418,7.16803 -39.81359,9.29917 -12.39939,2.13115 -29.44832,3.19671 -51.14726,3.19671 -32.16094,0 -61.90039,-4.74668 -89.21781,-14.23996 -27.12368,-9.49329 -50.46928,-23.6361 -70.03707,-42.42894 -19.5678,-18.79283 -34.77668,-42.23562 -45.62616,-70.328 -6.44825,-16.99995 -10.94557,-35.59635 -13.49168,-55.78885 v -5.1e-4 c -1.661235,-13.17522 -2.491838,-27.03042 -2.491838,-41.56491 0,-20.75204 1.880542,-40.33348 5.640998,-58.74422 v -5.1e-4 c 2.45356,-12.01212 5.70741,-23.52618 9.76168,-34.54156 4.0544,-11.01573 8.83394,-21.41204 14.33814,-31.18931 v -5.2e-4 c 8.43583,-14.98475 18.57428,-28.51489 30.41572,-40.5908 11.37314,-11.60766 24.3785,-21.61875 39.0157,-30.03331 4.77457,-2.74478 9.72271,-5.31957 14.84458,-7.7246 5.12185,-2.40502 10.41722,-4.640257 15.88636,-6.705531 11.01574,-4.130898 22.42424,-7.446321 34.22531,-9.946163 9.04322,-1.915633 18.31716,-3.352507 27.82155,-4.310331 9.50439,-0.957823 19.23938,-1.436605 29.20494,-1.436605 z M 476.89699,251.3552 c 32.9359,0 63.35315,5.23112 91.25179,15.6931 27.7049,10.46199 50.95381,25.28312 69.74665,44.46344 19.5678,19.95527 34.48561,43.88199 44.75386,71.78063 10.26824,27.89864 15.40268,58.99421 15.40268,93.28629 0,36.81072 -5.32779,69.26188 -15.98353,97.35427 -4.28371,11.09177 -9.24715,21.45886 -14.89004,31.10094 v 5.2e-4 c -8.64888,14.77828 -18.89454,27.85394 -30.73611,39.22654 -7.7263,7.4203 -16.0415,14.1156 -24.94576,20.08612 h -5.2e-4 c -13.64683,9.15048 -28.67691,16.59848 -45.09079,22.34333 -10.7858,3.74826 -21.94902,6.75645 -33.48994,9.02478 -17.68895,3.47669 -36.26518,5.21518 -55.72787,5.21518 -8.56699,0 -16.40936,-0.16639 -23.52673,-0.49867 -2e-4,-1e-5 -3.1e-4,0 -5.2e-4,0 -10.90968,-0.50936 -20.11615,-1.40883 -27.62002,-2.69855 -12.3994,-2.13115 -25.67052,-5.23061 -39.81359,-9.29917 -10.84946,-3.09984 -21.21449,-6.78096 -31.09526,-11.04326 -9.88077,-4.26229 -20.2463,-8.81508 -31.09577,-13.65859 V 560.27433 h 11.62461 c 5.23099,4.64976 11.9149,10.17145 20.05201,16.56488 8.1371,6.39344 16.95263,12.39954 26.44593,18.01802 11.23695,6.97466 23.53921,12.49633 36.90731,16.56488 13.17436,4.06855 26.54269,6.10247 40.10453,6.10247 14.14306,0 28.47975,-2.22779 43.01029,-6.68383 14.53055,-4.64978 27.705,-12.30256 39.52317,-22.95829 7.03441,-6.33097 13.35969,-14.08094 18.97507,-23.24974 v -5.2e-4 c 3.66387,-5.98249 7.02583,-12.56936 10.08569,-19.76003 2.98332,-7.19058 5.37755,-15.07597 7.18302,-23.65592 l 5.2e-4,-5.2e-4 c 2.76713,-13.1503 4.15065,-27.93271 4.15065,-44.34665 0,-25.96122 -3.48774,-48.04739 -10.46241,-66.259 -7.1684,-18.21161 -16.46786,-32.83937 -27.89856,-43.88259 -12.01191,-11.4307 -25.08917,-19.56792 -39.23223,-24.41143 -14.14306,-5.03725 -29.06138,-7.55561 -44.75437,-7.55561 -4.27934,0 -8.47902,0.19527 -12.59872,0.58549 -4.11968,0.39021 -8.15962,0.97553 -12.11967,1.75596 -5.16754,1.01843 -10.19947,2.36905 -15.0952,4.05195 -7.50343,2.57931 -14.68737,5.51324 -21.55217,8.80205 -4.47921,2.14592 -8.8228,4.4431 -13.03022,6.89105 -6.33125,3.75186 -12.2368,7.53926 -17.71675,11.3621 -3.57525,2.49412 -6.96957,5.0034 -10.18232,7.52771 -5.04219,3.86957 -9.5523,7.41979 -13.52992,10.65051 -2.59421,2.10707 -4.96207,4.07838 -7.10345,5.91385 H 324.03552 V 287.39073 c 3.13619,-1.52985 6.48371,-3.10482 10.0428,-4.7253 l 5.1e-4,-5.1e-4 c 5.45525,-2.48381 11.4073,-5.07396 17.85576,-7.77059 4.13037,-1.83572 8.45718,-3.59615 12.98009,-5.28081 h 5.1e-4 5.2e-4 c 6.93306,-2.58235 14.32711,-4.98738 22.18263,-7.21507 4.89592,-1.30047 9.97327,-2.49522 15.23162,-3.58427 8.05894,-1.66907 16.54338,-3.08986 25.45375,-4.26228 14.53053,-2.13114 30.90167,-3.1967 49.11328,-3.1967 z"
     transform="matrix(0.03612871,0,0,0.03612871,-1.1105668,-0.88452951)" /></svg>
